<svg width="15" height="15" viewBox="0 0 15 15" fill="none" xmlns="http://www.w3.org/2000/svg">
<g clip-path="url(#clip0_2_669)">
<path d="M7.5 0.234375C11.5137 0.234375 14.7656 3.48633 14.7656 7.5C14.7656 11.5137 11.5137 14.7656 7.5 14.7656C3.48633 14.7656 0.234375 11.5137 0.234375 7.5C0.234375 3.48633 3.48633 0.234375 7.5 0.234375ZM4.10156 8.78906H7.5V10.8662C7.5 11.1797 7.88086 11.3379 8.10059 11.1152L11.4492 7.74902C11.5869 7.61133 11.5869 7.3916 11.4492 7.25391L8.10059 3.88477C7.87793 3.66211 7.5 3.82031 7.5 4.13379V6.21094H4.10156C3.9082 6.21094 3.75 6.36914 3.75 6.5625V8.4375C3.75 8.63086 3.9082 8.78906 4.10156 8.78906Z" fill="#222222"/>
</g>
<defs>
<clipPath id="clip0_2_669">
<rect width="15" height="15" fill="white"/>
</clipPath>
</defs>
</svg>
