<svg width="1440" height="267" viewBox="0 0 1440 267" fill="none" xmlns="http://www.w3.org/2000/svg">
<mask id="path-1-outside-1_1_403" maskUnits="userSpaceOnUse" x="-26" y="0" width="1492" height="267" fill="black">
<rect fill="white" x="-26" width="1492" height="267"/>
<path d="M47.3178 266C33.9724 266 21.7691 262.63 10.7081 255.891C-0.232792 249.152 -8.94941 240.126 -15.4418 228.813C-21.8139 217.381 -25 204.684 -25 190.724L-24.6393 75.3733C-24.6393 61.654 -21.5134 49.2584 -15.2614 38.1866C-9.00952 26.9946 -0.413136 18.0288 10.5277 11.2895C21.5888 4.42984 33.8522 1 47.3178 1C61.024 1 73.2272 4.30949 83.9276 10.9285C94.7482 17.5475 103.345 26.5132 109.717 37.8256C116.209 49.0177 119.455 61.5336 119.455 75.3733V92.342C119.455 93.3047 118.974 93.7861 118.013 93.7861H76.5335C75.5717 93.7861 75.0908 93.3047 75.0908 92.342V75.3733C75.0908 67.1898 72.4457 60.1496 67.1557 54.2527C61.8656 48.3558 55.253 45.4074 47.3178 45.4074C38.5411 45.4074 31.8083 48.416 27.1193 54.4332C22.4304 60.4505 20.0859 67.4305 20.0859 75.3733V190.724C20.0859 199.75 22.731 207.151 28.0211 212.928C33.3111 218.584 39.7434 221.412 47.3178 221.412C55.253 221.412 61.8656 218.283 67.1557 212.025C72.4457 205.647 75.0908 198.547 75.0908 190.724V173.575C75.0908 172.612 75.5717 172.131 76.5335 172.131H118.373C119.335 172.131 119.816 172.612 119.816 173.575V190.724C119.816 204.564 116.57 217.2 110.077 228.633C103.465 239.945 94.7482 249.031 83.9276 255.891C73.107 262.63 60.9037 266 47.3178 266ZM215.038 266C201.933 266 189.85 262.63 178.788 255.891C167.848 249.152 159.011 240.186 152.278 228.994C145.665 217.681 142.359 205.286 142.359 191.807L142.72 74.6512C142.72 60.9319 146.026 48.5965 152.639 37.6451C159.131 26.5733 167.908 17.728 178.969 11.109C190.03 4.36966 202.053 1 215.038 1C228.503 1 240.586 4.30949 251.287 10.9285C262.107 17.5475 270.764 26.453 277.256 37.6451C283.869 48.7169 287.175 61.0522 287.175 74.6512L287.536 191.807C287.536 205.286 284.29 217.621 277.797 228.813C271.185 240.126 262.408 249.152 251.467 255.891C240.526 262.63 228.383 266 215.038 266ZM215.038 221.412C222.492 221.412 228.984 218.404 234.515 212.386C240.045 206.249 242.81 199.389 242.81 191.807L242.45 74.6512C242.45 66.4678 239.865 59.5479 234.695 53.8917C229.525 48.2355 222.973 45.4074 215.038 45.4074C207.463 45.4074 200.971 48.1753 195.56 53.7112C190.15 59.247 187.445 66.2271 187.445 74.6512V191.807C187.445 199.87 190.15 206.85 195.56 212.747C200.971 218.524 207.463 221.412 215.038 221.412ZM436.319 262.39H316.932C315.97 262.39 315.489 261.788 315.489 260.584L315.85 6.95708C315.85 5.75363 316.451 5.15191 317.653 5.15191H358.771C359.974 5.15191 360.575 5.75363 360.575 6.95708L360.214 216.899H436.319C437.522 216.899 438.123 217.501 438.123 218.704V260.584C438.123 261.788 437.522 262.39 436.319 262.39ZM583.119 262.39H463.732C462.77 262.39 462.289 261.788 462.289 260.584L462.65 6.95708C462.65 5.75363 463.251 5.15191 464.453 5.15191H505.571C506.774 5.15191 507.375 5.75363 507.375 6.95708L507.014 216.899H583.119C584.321 216.899 584.923 217.501 584.923 218.704V260.584C584.923 261.788 584.321 262.39 583.119 262.39ZM729.919 262.39H610.531C609.57 262.39 609.089 261.788 609.089 260.584L609.449 6.59605C609.449 5.63329 609.93 5.15191 610.892 5.15191H729.558C730.52 5.15191 731.001 5.75363 731.001 6.95708V48.2956C731.001 49.2584 730.52 49.7398 729.558 49.7398H653.814V107.505H729.558C730.52 107.505 731.001 107.987 731.001 108.95L731.362 150.83C731.362 151.792 730.881 152.274 729.919 152.274H653.814V216.899H729.919C730.881 216.899 731.362 217.501 731.362 218.704V260.945C731.362 261.908 730.881 262.39 729.919 262.39ZM832.174 266C818.828 266 806.625 262.63 795.564 255.891C784.623 249.152 775.907 240.126 769.414 228.813C763.042 217.381 759.856 204.684 759.856 190.724L760.217 75.3733C760.217 61.654 763.343 49.2584 769.595 38.1866C775.846 26.9946 784.443 18.0288 795.384 11.2895C806.445 4.42984 818.708 1 832.174 1C845.88 1 858.083 4.30949 868.784 10.9285C879.604 17.5475 888.201 26.5132 894.573 37.8256C901.065 49.0177 904.311 61.5336 904.311 75.3733V92.342C904.311 93.3047 903.83 93.7861 902.869 93.7861H861.39C860.428 93.7861 859.947 93.3047 859.947 92.342V75.3733C859.947 67.1898 857.302 60.1496 852.012 54.2527C846.722 48.3558 840.109 45.4074 832.174 45.4074C823.397 45.4074 816.664 48.416 811.975 54.4332C807.286 60.4505 804.942 67.4305 804.942 75.3733V190.724C804.942 199.75 807.587 207.151 812.877 212.928C818.167 218.584 824.599 221.412 832.174 221.412C840.109 221.412 846.722 218.283 852.012 212.025C857.302 205.647 859.947 198.547 859.947 190.724V173.575C859.947 172.612 860.428 172.131 861.39 172.131H903.229C904.191 172.131 904.672 172.612 904.672 173.575V190.724C904.672 204.564 901.426 217.2 894.933 228.633C888.321 239.945 879.604 249.031 868.784 255.891C857.963 262.63 845.76 266 832.174 266ZM1010.35 262.39H968.694C967.612 262.39 967.071 261.788 967.071 260.584V49.7398H919.1C917.897 49.7398 917.296 49.1381 917.296 47.9346L917.657 6.59605C917.657 5.63329 918.138 5.15191 919.1 5.15191H1059.41C1060.73 5.15191 1061.39 5.63329 1061.39 6.59605V47.9346C1061.39 49.1381 1060.91 49.7398 1059.95 49.7398H1011.44L1011.8 260.584C1011.8 261.788 1011.32 262.39 1010.35 262.39ZM1123.07 262.39H1081.23C1080.03 262.39 1079.43 261.788 1079.43 260.584L1079.79 6.59605C1079.79 5.63329 1080.27 5.15191 1081.23 5.15191H1122.71C1123.67 5.15191 1124.15 5.63329 1124.15 6.59605L1124.51 260.584C1124.51 261.788 1124.03 262.39 1123.07 262.39ZM1225.32 266C1212.22 266 1200.14 262.63 1189.07 255.891C1178.13 249.152 1169.3 240.186 1162.56 228.994C1155.95 217.681 1152.64 205.286 1152.64 191.807L1153.01 74.6512C1153.01 60.9319 1156.31 48.5965 1162.92 37.6451C1169.42 26.5733 1178.19 17.728 1189.25 11.109C1200.32 4.36966 1212.34 1 1225.32 1C1238.79 1 1250.87 4.30949 1261.57 10.9285C1272.39 17.5475 1281.05 26.453 1287.54 37.6451C1294.15 48.7169 1297.46 61.0522 1297.46 74.6512L1297.82 191.807C1297.82 205.286 1294.58 217.621 1288.08 228.813C1281.47 240.126 1272.69 249.152 1261.75 255.891C1250.81 262.63 1238.67 266 1225.32 266ZM1225.32 221.412C1232.78 221.412 1239.27 218.404 1244.8 212.386C1250.33 206.249 1253.1 199.389 1253.1 191.807L1252.74 74.6512C1252.74 66.4678 1250.15 59.5479 1244.98 53.8917C1239.81 48.2355 1233.26 45.4074 1225.32 45.4074C1217.75 45.4074 1211.26 48.1753 1205.85 53.7112C1200.44 59.247 1197.73 66.2271 1197.73 74.6512V191.807C1197.73 199.87 1200.44 206.85 1205.85 212.747C1211.26 218.524 1217.75 221.412 1225.32 221.412ZM1365.99 262.39H1329.02C1327.1 262.39 1326.14 261.547 1326.14 259.862L1325.77 8.04019C1325.77 6.11467 1326.74 5.15191 1328.66 5.15191H1362.02L1424.42 150.83L1422.62 8.04019C1422.62 6.11467 1423.7 5.15191 1425.87 5.15191H1462.48C1463.92 5.15191 1464.64 6.11467 1464.64 8.04019L1465 260.223C1465 261.668 1464.4 262.39 1463.2 262.39H1430.73L1366.71 126.279L1369.42 259.501C1369.42 261.427 1368.28 262.39 1365.99 262.39Z"/>
</mask>
<path d="M47.3178 266C33.9724 266 21.7691 262.63 10.7081 255.891C-0.232792 249.152 -8.94941 240.126 -15.4418 228.813C-21.8139 217.381 -25 204.684 -25 190.724L-24.6393 75.3733C-24.6393 61.654 -21.5134 49.2584 -15.2614 38.1866C-9.00952 26.9946 -0.413136 18.0288 10.5277 11.2895C21.5888 4.42984 33.8522 1 47.3178 1C61.024 1 73.2272 4.30949 83.9276 10.9285C94.7482 17.5475 103.345 26.5132 109.717 37.8256C116.209 49.0177 119.455 61.5336 119.455 75.3733V92.342C119.455 93.3047 118.974 93.7861 118.013 93.7861H76.5335C75.5717 93.7861 75.0908 93.3047 75.0908 92.342V75.3733C75.0908 67.1898 72.4457 60.1496 67.1557 54.2527C61.8656 48.3558 55.253 45.4074 47.3178 45.4074C38.5411 45.4074 31.8083 48.416 27.1193 54.4332C22.4304 60.4505 20.0859 67.4305 20.0859 75.3733V190.724C20.0859 199.75 22.731 207.151 28.0211 212.928C33.3111 218.584 39.7434 221.412 47.3178 221.412C55.253 221.412 61.8656 218.283 67.1557 212.025C72.4457 205.647 75.0908 198.547 75.0908 190.724V173.575C75.0908 172.612 75.5717 172.131 76.5335 172.131H118.373C119.335 172.131 119.816 172.612 119.816 173.575V190.724C119.816 204.564 116.57 217.2 110.077 228.633C103.465 239.945 94.7482 249.031 83.9276 255.891C73.107 262.63 60.9037 266 47.3178 266ZM215.038 266C201.933 266 189.85 262.63 178.788 255.891C167.848 249.152 159.011 240.186 152.278 228.994C145.665 217.681 142.359 205.286 142.359 191.807L142.72 74.6512C142.72 60.9319 146.026 48.5965 152.639 37.6451C159.131 26.5733 167.908 17.728 178.969 11.109C190.03 4.36966 202.053 1 215.038 1C228.503 1 240.586 4.30949 251.287 10.9285C262.107 17.5475 270.764 26.453 277.256 37.6451C283.869 48.7169 287.175 61.0522 287.175 74.6512L287.536 191.807C287.536 205.286 284.29 217.621 277.797 228.813C271.185 240.126 262.408 249.152 251.467 255.891C240.526 262.63 228.383 266 215.038 266ZM215.038 221.412C222.492 221.412 228.984 218.404 234.515 212.386C240.045 206.249 242.81 199.389 242.81 191.807L242.45 74.6512C242.45 66.4678 239.865 59.5479 234.695 53.8917C229.525 48.2355 222.973 45.4074 215.038 45.4074C207.463 45.4074 200.971 48.1753 195.56 53.7112C190.15 59.247 187.445 66.2271 187.445 74.6512V191.807C187.445 199.87 190.15 206.85 195.56 212.747C200.971 218.524 207.463 221.412 215.038 221.412ZM436.319 262.39H316.932C315.97 262.39 315.489 261.788 315.489 260.584L315.85 6.95708C315.85 5.75363 316.451 5.15191 317.653 5.15191H358.771C359.974 5.15191 360.575 5.75363 360.575 6.95708L360.214 216.899H436.319C437.522 216.899 438.123 217.501 438.123 218.704V260.584C438.123 261.788 437.522 262.39 436.319 262.39ZM583.119 262.39H463.732C462.77 262.39 462.289 261.788 462.289 260.584L462.65 6.95708C462.65 5.75363 463.251 5.15191 464.453 5.15191H505.571C506.774 5.15191 507.375 5.75363 507.375 6.95708L507.014 216.899H583.119C584.321 216.899 584.923 217.501 584.923 218.704V260.584C584.923 261.788 584.321 262.39 583.119 262.39ZM729.919 262.39H610.531C609.57 262.39 609.089 261.788 609.089 260.584L609.449 6.59605C609.449 5.63329 609.93 5.15191 610.892 5.15191H729.558C730.52 5.15191 731.001 5.75363 731.001 6.95708V48.2956C731.001 49.2584 730.52 49.7398 729.558 49.7398H653.814V107.505H729.558C730.52 107.505 731.001 107.987 731.001 108.95L731.362 150.83C731.362 151.792 730.881 152.274 729.919 152.274H653.814V216.899H729.919C730.881 216.899 731.362 217.501 731.362 218.704V260.945C731.362 261.908 730.881 262.39 729.919 262.39ZM832.174 266C818.828 266 806.625 262.63 795.564 255.891C784.623 249.152 775.907 240.126 769.414 228.813C763.042 217.381 759.856 204.684 759.856 190.724L760.217 75.3733C760.217 61.654 763.343 49.2584 769.595 38.1866C775.846 26.9946 784.443 18.0288 795.384 11.2895C806.445 4.42984 818.708 1 832.174 1C845.88 1 858.083 4.30949 868.784 10.9285C879.604 17.5475 888.201 26.5132 894.573 37.8256C901.065 49.0177 904.311 61.5336 904.311 75.3733V92.342C904.311 93.3047 903.83 93.7861 902.869 93.7861H861.39C860.428 93.7861 859.947 93.3047 859.947 92.342V75.3733C859.947 67.1898 857.302 60.1496 852.012 54.2527C846.722 48.3558 840.109 45.4074 832.174 45.4074C823.397 45.4074 816.664 48.416 811.975 54.4332C807.286 60.4505 804.942 67.4305 804.942 75.3733V190.724C804.942 199.75 807.587 207.151 812.877 212.928C818.167 218.584 824.599 221.412 832.174 221.412C840.109 221.412 846.722 218.283 852.012 212.025C857.302 205.647 859.947 198.547 859.947 190.724V173.575C859.947 172.612 860.428 172.131 861.39 172.131H903.229C904.191 172.131 904.672 172.612 904.672 173.575V190.724C904.672 204.564 901.426 217.2 894.933 228.633C888.321 239.945 879.604 249.031 868.784 255.891C857.963 262.63 845.76 266 832.174 266ZM1010.35 262.39H968.694C967.612 262.39 967.071 261.788 967.071 260.584V49.7398H919.1C917.897 49.7398 917.296 49.1381 917.296 47.9346L917.657 6.59605C917.657 5.63329 918.138 5.15191 919.1 5.15191H1059.41C1060.73 5.15191 1061.39 5.63329 1061.39 6.59605V47.9346C1061.39 49.1381 1060.91 49.7398 1059.95 49.7398H1011.44L1011.8 260.584C1011.8 261.788 1011.32 262.39 1010.35 262.39ZM1123.07 262.39H1081.23C1080.03 262.39 1079.43 261.788 1079.43 260.584L1079.79 6.59605C1079.79 5.63329 1080.27 5.15191 1081.23 5.15191H1122.71C1123.67 5.15191 1124.15 5.63329 1124.15 6.59605L1124.51 260.584C1124.51 261.788 1124.03 262.39 1123.07 262.39ZM1225.32 266C1212.22 266 1200.14 262.63 1189.07 255.891C1178.13 249.152 1169.3 240.186 1162.56 228.994C1155.95 217.681 1152.64 205.286 1152.64 191.807L1153.01 74.6512C1153.01 60.9319 1156.31 48.5965 1162.92 37.6451C1169.42 26.5733 1178.19 17.728 1189.25 11.109C1200.32 4.36966 1212.34 1 1225.32 1C1238.79 1 1250.87 4.30949 1261.57 10.9285C1272.39 17.5475 1281.05 26.453 1287.54 37.6451C1294.15 48.7169 1297.46 61.0522 1297.46 74.6512L1297.82 191.807C1297.82 205.286 1294.58 217.621 1288.08 228.813C1281.47 240.126 1272.69 249.152 1261.75 255.891C1250.81 262.63 1238.67 266 1225.32 266ZM1225.32 221.412C1232.78 221.412 1239.27 218.404 1244.8 212.386C1250.33 206.249 1253.1 199.389 1253.1 191.807L1252.74 74.6512C1252.74 66.4678 1250.15 59.5479 1244.98 53.8917C1239.81 48.2355 1233.26 45.4074 1225.32 45.4074C1217.75 45.4074 1211.26 48.1753 1205.85 53.7112C1200.44 59.247 1197.73 66.2271 1197.73 74.6512V191.807C1197.73 199.87 1200.44 206.85 1205.85 212.747C1211.26 218.524 1217.75 221.412 1225.32 221.412ZM1365.99 262.39H1329.02C1327.1 262.39 1326.14 261.547 1326.14 259.862L1325.77 8.04019C1325.77 6.11467 1326.74 5.15191 1328.66 5.15191H1362.02L1424.42 150.83L1422.62 8.04019C1422.62 6.11467 1423.7 5.15191 1425.87 5.15191H1462.48C1463.92 5.15191 1464.64 6.11467 1464.64 8.04019L1465 260.223C1465 261.668 1464.4 262.39 1463.2 262.39H1430.73L1366.71 126.279L1369.42 259.501C1369.42 261.427 1368.28 262.39 1365.99 262.39Z" stroke="#222222" stroke-opacity="0.3" stroke-width="2" mask="url(#path-1-outside-1_1_403)"/>
</svg>
