<svg width="200" height="140" viewBox="0 0 200 140" fill="none" xmlns="http://www.w3.org/2000/svg">
<path d="M54.48 87.224C56.496 85.592 58.464 83.912 60.384 82.184C62.304 80.456 64.368 78.824 66.576 77.288C68.112 76.04 69.696 74.888 71.328 73.832C72.96 72.68 74.496 71.432 75.936 70.088C76.512 69.896 77.04 69.512 77.52 68.936C78.096 68.36 78.72 68.36 79.392 68.936C79.584 69.8 79.344 70.424 78.672 70.808C78.096 71.192 77.568 71.624 77.088 72.104C73.536 75.08 69.888 77.96 66.144 80.744C62.4 83.432 58.944 86.456 55.776 89.816C56.736 92.216 57.168 95.192 57.072 98.744C57.072 102.2 56.64 105.128 55.776 107.528C54.144 112.808 51.888 117.416 49.008 121.352C46.224 125.384 43.056 129.08 39.504 132.44C38.544 133.208 37.584 133.976 36.624 134.744C35.664 135.512 34.656 136.232 33.6 136.904C32.544 137.384 31.344 137.912 30 138.488C28.656 139.064 27.264 139.112 25.824 138.632C24.672 138.248 23.904 137.624 23.52 136.76C23.232 135.896 23.136 134.936 23.232 133.88C23.328 132.824 23.568 131.72 23.952 130.568C24.336 129.512 24.72 128.552 25.104 127.688C26.448 124.424 28.08 121.4 30 118.616C31.92 115.832 33.792 113.144 35.616 110.552C38.304 106.808 40.992 103.256 43.68 99.896C46.464 96.44 49.2 93.128 51.888 89.96C50.16 86.504 47.664 83.816 44.4 81.896C41.232 79.976 37.728 78.344 33.888 77C30.048 75.656 26.064 74.456 21.936 73.4C17.808 72.344 13.968 70.952 10.416 69.224C8.112 68.168 6 66.776 4.08 65.048C2.16 63.32 1.104 60.968 0.912 57.992C0.72 55.88 0.864 53.912 1.344 52.088C1.92 50.264 2.592 48.536 3.36 46.904C5.568 42.2 8.16 37.928 11.136 34.088C14.208 30.248 17.328 26.504 20.496 22.856C22.704 20.456 24.96 18.152 27.264 15.944C29.568 13.64 31.968 11.48 34.464 9.46399C37.152 7.73599 39.984 5.91199 42.96 3.992C45.936 2.072 49.44 0.919998 53.472 0.535997C55.776 0.343994 57.792 0.631993 59.52 1.39999C61.248 2.072 62.736 3.032 63.984 4.27999C65.232 5.52799 66.24 7.01599 67.008 8.74399C67.872 10.472 68.592 12.248 69.168 14.072C70.32 17.72 70.896 22.04 70.896 27.032C70.992 31.928 70.944 36.68 70.752 41.288C70.656 41.96 70.848 42.44 71.328 42.728C71.808 42.92 71.952 43.352 71.76 44.024C71.952 44.696 71.808 45.08 71.328 45.176C70.944 45.176 70.704 45.416 70.608 45.896C70.512 46.856 70.272 47.72 69.888 48.488C69.6 49.16 69.072 49.64 68.304 49.928H67.296C66.336 49.832 65.664 49.352 65.28 48.488C64.992 47.624 64.8 46.616 64.704 45.464C64.704 44.216 64.752 42.968 64.848 41.72C65.04 40.472 65.184 39.368 65.28 38.408C65.472 35.912 65.616 33.32 65.712 30.632C65.808 27.944 65.76 25.352 65.568 22.856C65.472 20.264 65.184 17.864 64.704 15.656C64.224 13.352 63.504 11.384 62.544 9.752C62.064 8.984 61.488 8.264 60.816 7.59199C60.24 6.92 59.568 6.344 58.8 5.864C58.32 5.67199 57.792 5.47999 57.216 5.288C56.736 5.09599 56.208 4.95199 55.632 4.85599C53.52 4.85599 51.552 5.09599 49.728 5.57599C47.904 6.05599 46.176 6.72799 44.544 7.59199C43.008 8.35999 41.52 9.27199 40.08 10.328C38.736 11.288 37.44 12.248 36.192 13.208C31.2 17.144 26.832 21.272 23.088 25.592C20.976 27.8 19.008 30.104 17.184 32.504C15.36 34.808 13.584 37.208 11.856 39.704C11.088 40.856 10.272 42.104 9.408 43.448C8.64 44.792 7.872 46.184 7.104 47.624C6.624 48.488 6.144 49.496 5.664 50.648C5.28 51.8 4.992 53 4.8 54.248C4.608 55.4 4.56 56.6 4.656 57.848C4.752 59 5.088 60.056 5.664 61.016C7.008 62.936 8.736 64.424 10.848 65.48C12.96 66.44 15.168 67.304 17.472 68.072C20.928 69.32 24.48 70.472 28.128 71.528C31.776 72.488 35.28 73.64 38.64 74.984C42 76.328 45.024 77.96 47.712 79.88C50.496 81.8 52.752 84.248 54.48 87.224ZM36.912 129.992C38.832 128.168 40.704 126.2 42.528 124.088C44.352 122.072 46.032 119.816 47.568 117.32C49.488 114.152 51.072 110.6 52.32 106.664C53.664 102.632 53.952 98.168 53.184 93.272C53.184 93.176 53.136 93.128 53.04 93.128C52.848 93.32 52.752 93.464 52.752 93.56C48.816 98.168 45.024 102.872 41.376 107.672C37.728 112.472 34.32 117.56 31.152 122.936C30.288 124.76 29.28 126.632 28.128 128.552C27.072 130.472 26.688 132.68 26.976 135.176C29.184 135.176 31.008 134.552 32.448 133.304C33.888 132.152 35.376 131.048 36.912 129.992ZM87.1286 35.96C97.0166 35 107.145 33.896 117.513 32.648C127.881 31.304 138.585 30.584 149.625 30.488C152.313 30.392 154.953 30.488 157.545 30.776C160.233 30.968 162.729 31.304 165.033 31.784C165.609 31.976 166.329 32.168 167.193 32.36C168.057 32.552 168.441 33.08 168.345 33.944C167.865 34.712 167.193 34.952 166.329 34.664C165.561 34.376 164.841 34.136 164.169 33.944C161.385 33.368 158.409 33.032 155.241 32.936C152.169 32.84 149.001 32.888 145.737 33.08C142.569 33.176 139.401 33.368 136.233 33.656C133.065 33.944 130.089 34.232 127.305 34.52C120.393 35.096 113.577 35.816 106.857 36.68C100.137 37.448 93.5126 38.264 86.9846 39.128C86.6966 42.968 86.4566 46.856 86.2646 50.792C86.1686 54.728 86.0246 58.712 85.8326 62.744C85.7366 66.776 85.6406 70.808 85.5446 74.84C85.5446 78.776 85.4486 82.808 85.2566 86.936C84.9686 94.04 84.8246 101.048 84.8246 107.96C84.8246 114.872 84.7286 121.832 84.5366 128.84C84.5366 129.704 84.4406 130.52 84.2486 131.288C84.0566 132.152 83.4326 132.632 82.3766 132.728C81.3206 132.728 80.6966 132.296 80.5046 131.432C80.3126 130.568 80.1686 129.704 80.0726 128.84C79.8806 125.96 79.7366 122.984 79.6406 119.912C79.6406 116.936 79.5926 114.056 79.4966 111.272C79.4006 107.24 79.3046 103.208 79.2086 99.176C79.1126 95.144 79.0646 91.16 79.0646 87.224C79.0646 79.16 79.2566 71.144 79.6406 63.176C80.0246 55.208 80.4086 47.48 80.7926 39.992C75.3206 40.664 69.7046 41.528 63.9446 42.584C58.1846 43.64 52.4246 44.552 46.6646 45.32C45.8006 45.416 44.8886 45.512 43.9286 45.608C42.8726 45.704 41.8166 45.8 40.7606 45.896C39.6086 45.992 38.5046 45.944 37.4486 45.752C36.3926 45.464 35.8646 44.936 35.8646 44.168C35.9606 43.4 36.3926 43.016 37.1606 43.016C37.8326 42.92 38.5526 42.968 39.3206 43.16C46.5206 42.296 53.4806 41.24 60.2006 39.992C66.8246 38.648 73.7366 37.592 80.9366 36.824C81.1286 34.808 81.2726 32.696 81.3686 30.488C81.5606 28.28 81.7526 26.072 81.9446 23.864C82.1366 21.752 82.3286 19.688 82.5206 17.672C82.7126 15.56 83.4326 13.88 84.6806 12.632C85.3526 12.44 85.9286 12.44 86.4086 12.632C86.9846 12.824 87.3686 13.16 87.5606 13.64C87.7526 17.192 87.7526 20.888 87.5606 24.728C87.4646 28.568 87.3206 32.312 87.1286 35.96ZM104.024 66.632C105.08 67.88 105.992 69.56 106.76 71.672C107.624 73.784 108.152 75.992 108.344 78.296C108.632 80.6 108.584 82.856 108.2 85.064C107.816 87.176 106.904 88.904 105.464 90.248C104.504 91.016 103.448 91.736 102.296 92.408C101.144 92.984 99.8959 93.272 98.5519 93.272C96.2479 93.272 94.4239 92.552 93.0799 91.112C91.7359 89.576 90.9679 87.704 90.7759 85.496C90.5839 82.424 91.0159 79.64 92.0719 77.144C93.1279 74.552 94.1839 72.248 95.2399 70.232C94.7599 68.504 94.7599 66.92 95.2399 65.48C95.6239 63.944 96.6319 63.08 98.2639 62.888C98.7439 62.888 99.1759 63.032 99.5599 63.32C99.9439 63.512 100.28 63.608 100.568 63.608C101.048 63.608 101.48 63.512 101.864 63.32C102.248 63.032 102.584 62.888 102.872 62.888C103.928 62.888 104.792 63.272 105.464 64.04C106.136 64.808 106.28 65.672 105.896 66.632C105.32 67.208 104.696 67.208 104.024 66.632ZM97.9759 66.056C98.0719 66.344 98.1199 66.392 98.1199 66.2C98.1199 65.912 98.0719 65.864 97.9759 66.056ZM101 68.792C100.04 70.424 98.9839 72.392 97.8319 74.696C96.7759 77 96.1519 79.448 95.9599 82.04C95.7679 83.384 95.7679 84.68 95.9599 85.928C96.2479 87.176 96.8239 88.04 97.6879 88.52C98.5519 89 99.4159 89.096 100.28 88.808C101.24 88.424 102.056 87.992 102.728 87.512C103.88 86.36 104.6 84.92 104.888 83.192C105.176 81.464 105.176 79.688 104.888 77.864C104.696 75.944 104.264 74.168 103.592 72.536C102.92 70.808 102.152 69.464 101.288 68.504C101.288 68.408 101.24 68.408 101.144 68.504C101.048 68.6 101 68.696 101 68.792ZM121.313 66.2C121.985 66.488 122.417 66.968 122.609 67.64C122.801 68.312 122.945 69.08 123.041 69.944C123.137 70.712 123.233 71.48 123.329 72.248C123.425 73.016 123.665 73.64 124.049 74.12C124.817 73.064 125.777 72.008 126.929 70.952C128.177 69.8 129.905 69.512 132.113 70.088C133.169 70.28 134.225 70.664 135.281 71.24C136.337 71.72 137.393 72.104 138.449 72.392C140.081 72.872 141.761 73.304 143.489 73.688C145.313 73.976 147.281 74.024 149.393 73.832C152.657 73.64 155.297 72.776 157.313 71.24C159.329 69.608 161.297 67.832 163.217 65.912C164.177 65.816 164.705 65.912 164.801 66.2C164.993 66.488 164.993 66.92 164.801 67.496C164.609 67.976 164.273 68.504 163.793 69.08C163.409 69.56 163.073 69.944 162.785 70.232C161.249 71.864 159.473 73.304 157.457 74.552C155.441 75.8 153.137 76.616 150.545 77C147.761 77.384 144.977 77.336 142.193 76.856C139.409 76.376 136.913 75.752 134.705 74.984C133.937 74.696 133.121 74.36 132.257 73.976C131.393 73.592 130.577 73.496 129.809 73.688C128.945 73.88 128.225 74.6 127.649 75.848C127.073 77.096 126.593 78.152 126.209 79.016C125.153 81.32 124.337 83.528 123.761 85.64C123.281 87.656 122.657 89.96 121.889 92.552C121.601 93.608 121.169 94.76 120.593 96.008C120.017 97.16 119.201 97.736 118.145 97.736C117.473 97.736 116.993 97.496 116.705 97.016C116.321 96.44 116.081 95.768 115.985 95C115.889 94.232 115.889 93.464 115.985 92.696C115.985 91.832 115.985 91.016 115.985 90.248C116.177 86.888 116.465 83.864 116.849 81.176C117.137 78.392 117.521 75.512 118.001 72.536C118.097 71.864 118.193 71.192 118.289 70.52C118.385 69.752 118.529 69.08 118.721 68.504C118.913 67.832 119.201 67.304 119.585 66.92C119.969 66.44 120.545 66.2 121.313 66.2ZM121.313 80.744C121.601 79.784 121.937 78.872 122.321 78.008C122.801 77.048 123.137 76.136 123.329 75.272C122.945 75.464 122.609 75.416 122.321 75.128C122.129 74.84 121.937 74.648 121.745 74.552C121.745 75.608 121.649 76.664 121.457 77.72C121.265 78.776 121.217 79.784 121.313 80.744ZM162.911 74.696C162.527 75.272 162.239 75.992 162.047 76.856C161.759 77.72 161.567 78.632 161.471 79.592C161.375 80.552 161.471 81.464 161.759 82.328C161.951 83.096 162.335 83.72 162.911 84.2C165.311 85.16 167.663 85.208 169.967 84.344C172.271 83.48 174.383 82.616 176.303 81.752C179.375 80.312 182.015 78.776 184.223 77.144C186.143 75.992 188.015 74.744 189.839 73.4C191.663 72.056 193.487 70.712 195.311 69.368C195.887 68.888 196.463 68.408 197.039 67.928C197.711 67.448 198.431 67.304 199.199 67.496C199.583 68.456 199.391 69.224 198.623 69.8C197.951 70.376 197.375 70.904 196.895 71.384C196.223 71.96 195.503 72.488 194.735 72.968C194.063 73.448 193.487 73.928 193.007 74.408C191.279 75.752 189.407 77.144 187.391 78.584C185.375 79.928 183.263 81.32 181.055 82.76C178.943 84.104 176.735 85.448 174.431 86.792C172.223 88.04 169.775 88.808 167.087 89.096C164.399 89.384 162.143 88.904 160.319 87.656C158.495 86.312 157.439 84.392 157.151 81.896C156.959 80.168 157.055 78.632 157.439 77.288C157.823 75.944 158.255 74.648 158.735 73.4C158.447 72.92 158.015 72.536 157.439 72.248C156.863 71.96 156.575 71.432 156.575 70.664C157.055 70.184 157.583 70.088 158.159 70.376C158.735 70.568 159.263 70.76 159.743 70.952C160.991 69.128 162.527 67.208 164.351 65.192C166.175 63.08 168.335 61.736 170.831 61.16C171.887 60.968 172.847 61.112 173.711 61.592C174.671 62.072 175.295 62.84 175.583 63.896C175.679 65.432 175.343 66.824 174.575 68.072C173.903 69.224 173.087 70.184 172.127 70.952C170.975 72.008 169.631 72.872 168.095 73.544C166.655 74.216 164.927 74.6 162.911 74.696ZM164.927 70.952C166.559 70.28 167.999 69.464 169.247 68.504C169.823 68.024 170.399 67.496 170.975 66.92C171.551 66.248 171.791 65.528 171.695 64.76C170.159 65.336 168.815 66.2 167.663 67.352C166.607 68.504 165.695 69.704 164.927 70.952Z" fill="white"/>
</svg>
