<svg width="22" height="22" viewBox="0 0 22 22" fill="none" xmlns="http://www.w3.org/2000/svg">
<g clip-path="url(#clip0_1_77)">
<path d="M22 9.47222V10.0833C22 10.5896 21.5896 11 21.0833 11H20.7778L19.7804 17.9815C19.6514 18.8847 18.8779 19.5556 17.9655 19.5556H4.03448C3.12213 19.5556 2.34861 18.8847 2.21956 17.9815L1.22222 11H0.916667C0.410399 11 0 10.5896 0 10.0833V9.47222C0 8.96595 0.410399 8.55555 0.916667 8.55555H3.48872L7.56712 2.94781C7.96415 2.40193 8.7285 2.2812 9.27445 2.67823C9.82036 3.07526 9.94106 3.83965 9.54403 4.38556L6.51127 8.55555H15.4887L12.456 4.38552C12.0589 3.83965 12.1797 3.07523 12.7256 2.67819C13.2714 2.28116 14.0359 2.40186 14.4329 2.94777L18.5113 8.55555H21.0833C21.5896 8.55555 22 8.96595 22 9.47222ZM11.9167 16.1944V11.9167C11.9167 11.4104 11.5063 11 11 11C10.4937 11 10.0833 11.4104 10.0833 11.9167V16.1944C10.0833 16.7007 10.4937 17.1111 11 17.1111C11.5063 17.1111 11.9167 16.7007 11.9167 16.1944ZM16.1944 16.1944V11.9167C16.1944 11.4104 15.784 11 15.2778 11C14.7715 11 14.3611 11.4104 14.3611 11.9167V16.1944C14.3611 16.7007 14.7715 17.1111 15.2778 17.1111C15.784 17.1111 16.1944 16.7007 16.1944 16.1944ZM7.63889 16.1944V11.9167C7.63889 11.4104 7.22849 11 6.72222 11C6.21595 11 5.80556 11.4104 5.80556 11.9167V16.1944C5.80556 16.7007 6.21595 17.1111 6.72222 17.1111C7.22849 17.1111 7.63889 16.7007 7.63889 16.1944Z" fill="white"/>
</g>
<defs>
<clipPath id="clip0_1_77">
<rect width="22" height="22" fill="white"/>
</clipPath>
</defs>
</svg>
