<svg width="22" height="22" viewBox="0 0 22 22" fill="none" xmlns="http://www.w3.org/2000/svg">
<path d="M11 11C14.0379 11 16.5 8.53789 16.5 5.5C16.5 2.46211 14.0379 0 11 0C7.96211 0 5.5 2.46211 5.5 5.5C5.5 8.53789 7.96211 11 11 11ZM14.85 12.375H14.1324C13.1785 12.8133 12.1172 13.0625 11 13.0625C9.88281 13.0625 8.82578 12.8133 7.86758 12.375H7.15C3.96172 12.375 1.375 14.9617 1.375 18.15V19.9375C1.375 21.0762 2.29883 22 3.4375 22H18.5625C19.7012 22 20.625 21.0762 20.625 19.9375V18.15C20.625 14.9617 18.0383 12.375 14.85 12.375Z" fill="white"/>
</svg>
